<svg width="104" height="50" viewBox="0 0 104 50" fill="none" xmlns="http://www.w3.org/2000/svg">
<path d="M26.1532 35.216C25.6412 35.216 25.2172 35.104 24.8812 34.88C24.5612 34.64 24.2972 34.28 24.0892 33.8L18.0412 20.36C17.8172 19.88 17.7532 19.456 17.8492 19.088C17.9452 18.704 18.1452 18.408 18.4492 18.2C18.7532 17.976 19.1212 17.864 19.5532 17.864C20.0972 17.864 20.5132 17.992 20.8012 18.248C21.0892 18.488 21.3292 18.848 21.5212 19.328L26.8252 31.592H25.6252L30.9292 19.304C31.1372 18.824 31.3852 18.464 31.6732 18.224C31.9612 17.984 32.3612 17.864 32.8732 17.864C33.3052 17.864 33.6572 17.976 33.9292 18.2C34.2172 18.408 34.3932 18.704 34.4572 19.088C34.5372 19.456 34.4732 19.88 34.2652 20.36L28.2172 33.8C27.9932 34.28 27.7212 34.64 27.4012 34.88C27.0972 35.104 26.6812 35.216 26.1532 35.216ZM38.1005 29.984C37.7005 29.984 37.3565 29.848 37.0685 29.576C36.7965 29.304 36.6605 28.968 36.6605 28.568C36.6605 28.152 36.7965 27.808 37.0685 27.536C37.3565 27.264 37.7005 27.128 38.1005 27.128H43.0445C43.4445 27.128 43.7805 27.264 44.0525 27.536C44.3405 27.808 44.4845 28.152 44.4845 28.568C44.4845 28.968 44.3405 29.304 44.0525 29.576C43.7805 29.848 43.4445 29.984 43.0445 29.984H38.1005Z" fill="black"/>
<path d="M53.9789 35.216C53.3709 35.216 52.9069 35.048 52.5869 34.712C52.2669 34.376 52.1069 33.904 52.1069 33.296V21.152H47.8589C47.3629 21.152 46.9789 21.016 46.7069 20.744C46.4349 20.472 46.2989 20.096 46.2989 19.616C46.2989 19.12 46.4349 18.744 46.7069 18.488C46.9789 18.216 47.3629 18.08 47.8589 18.08H60.0749C60.5709 18.08 60.9549 18.216 61.2269 18.488C61.4989 18.744 61.6349 19.12 61.6349 19.616C61.6349 20.096 61.4989 20.472 61.2269 20.744C60.9549 21.016 60.5709 21.152 60.0749 21.152H55.8269V33.296C55.8269 33.904 55.6669 34.376 55.3469 34.712C55.0429 35.048 54.5869 35.216 53.9789 35.216ZM68.8286 35.264C67.4366 35.264 66.2366 35.016 65.2286 34.52C64.2366 34.008 63.4686 33.296 62.9246 32.384C62.3966 31.456 62.1326 30.368 62.1326 29.12C62.1326 27.904 62.3886 26.84 62.9006 25.928C63.4126 25 64.1246 24.28 65.0366 23.768C65.9646 23.24 67.0126 22.976 68.1806 22.976C69.0286 22.976 69.7966 23.12 70.4846 23.408C71.1726 23.68 71.7646 24.08 72.2606 24.608C72.7566 25.12 73.1326 25.752 73.3886 26.504C73.6446 27.24 73.7726 28.064 73.7726 28.976C73.7726 29.28 73.6766 29.512 73.4846 29.672C73.2926 29.816 73.0126 29.888 72.6446 29.888H65.1086V28.016H71.1566L70.7726 28.352C70.7726 27.696 70.6766 27.152 70.4846 26.72C70.2926 26.272 70.0126 25.936 69.6446 25.712C69.2926 25.488 68.8526 25.376 68.3246 25.376C67.7326 25.376 67.2286 25.512 66.8126 25.784C66.3966 26.056 66.0766 26.448 65.8526 26.96C65.6286 27.472 65.5166 28.088 65.5166 28.808V29C65.5166 30.216 65.7966 31.112 66.3566 31.688C66.9326 32.264 67.7806 32.552 68.9006 32.552C69.2846 32.552 69.7246 32.504 70.2206 32.408C70.7166 32.312 71.1806 32.16 71.6126 31.952C71.9806 31.776 72.3086 31.72 72.5966 31.784C72.8846 31.832 73.1086 31.96 73.2686 32.168C73.4286 32.376 73.5166 32.616 73.5326 32.888C73.5646 33.16 73.5086 33.432 73.3646 33.704C73.2206 33.96 72.9806 34.176 72.6446 34.352C72.1006 34.656 71.4846 34.88 70.7966 35.024C70.1246 35.184 69.4686 35.264 68.8286 35.264ZM83.2964 35.264C82.0164 35.264 80.8964 35.016 79.9364 34.52C78.9924 34.008 78.2644 33.288 77.7524 32.36C77.2404 31.432 76.9844 30.336 76.9844 29.072C76.9844 28.128 77.1284 27.28 77.4164 26.528C77.7044 25.776 78.1204 25.136 78.6644 24.608C79.2244 24.08 79.8964 23.68 80.6804 23.408C81.4644 23.12 82.3364 22.976 83.2964 22.976C83.7924 22.976 84.3204 23.04 84.8804 23.168C85.4404 23.28 85.9924 23.48 86.5364 23.768C86.8564 23.912 87.0724 24.12 87.1844 24.392C87.3124 24.648 87.3604 24.92 87.3284 25.208C87.2964 25.48 87.1924 25.728 87.0164 25.952C86.8564 26.16 86.6484 26.304 86.3924 26.384C86.1364 26.448 85.8484 26.4 85.5284 26.24C85.2244 26.064 84.9044 25.936 84.5684 25.856C84.2484 25.776 83.9444 25.736 83.6564 25.736C83.1764 25.736 82.7524 25.816 82.3844 25.976C82.0164 26.12 81.7044 26.336 81.4484 26.624C81.2084 26.896 81.0164 27.24 80.8724 27.656C80.7444 28.072 80.6804 28.552 80.6804 29.096C80.6804 30.152 80.9364 30.984 81.4484 31.592C81.9764 32.184 82.7124 32.48 83.6564 32.48C83.9444 32.48 84.2484 32.448 84.5684 32.384C84.8884 32.304 85.2084 32.176 85.5284 32C85.8484 31.84 86.1364 31.8 86.3924 31.88C86.6484 31.96 86.8484 32.112 86.9924 32.336C87.1524 32.544 87.2404 32.792 87.2564 33.08C87.2884 33.352 87.2404 33.624 87.1124 33.896C87.0004 34.152 86.7924 34.352 86.4884 34.496C85.9444 34.768 85.4004 34.96 84.8564 35.072C84.3124 35.2 83.7924 35.264 83.2964 35.264ZM92.5254 35.216C91.9334 35.216 91.4774 35.056 91.1574 34.736C90.8534 34.416 90.7014 33.96 90.7014 33.368V19.712C90.7014 19.104 90.8534 18.648 91.1574 18.344C91.4774 18.024 91.9334 17.864 92.5254 17.864C93.1014 17.864 93.5414 18.024 93.8454 18.344C94.1654 18.648 94.3254 19.104 94.3254 19.712V25.424H93.9894C94.3574 24.64 94.9014 24.04 95.6214 23.624C96.3574 23.192 97.1894 22.976 98.1174 22.976C99.0614 22.976 99.8374 23.16 100.445 23.528C101.053 23.88 101.509 24.424 101.813 25.16C102.117 25.88 102.269 26.8 102.269 27.92V33.368C102.269 33.96 102.109 34.416 101.789 34.736C101.485 35.056 101.037 35.216 100.445 35.216C99.8694 35.216 99.4214 35.056 99.1014 34.736C98.7974 34.416 98.6454 33.96 98.6454 33.368V28.088C98.6454 27.272 98.4934 26.688 98.1894 26.336C97.9014 25.968 97.4534 25.784 96.8454 25.784C96.0774 25.784 95.4614 26.024 94.9974 26.504C94.5494 26.984 94.3254 27.624 94.3254 28.424V33.368C94.3254 34.6 93.7254 35.216 92.5254 35.216Z" fill="white"/>
</svg>
